<svg id="Layer_1" data-name="Layer 1" xmlns="http://www.w3.org/2000/svg" xmlns:xlink="http://www.w3.org/1999/xlink" viewBox="0 0 228.88 89.44"><defs><style>.cls-1{fill:none;}.cls-2{clip-path:url(#clip-path);}.cls-3{clip-path:url(#clip-path-2);}.cls-4{clip-path:url(#clip-path-3);}.cls-5{clip-path:url(#clip-path-4);}.cls-6{clip-path:url(#clip-path-7);}.cls-7{clip-path:url(#clip-path-10);}.cls-8{clip-path:url(#clip-path-13);}.cls-9{clip-path:url(#clip-path-16);}.cls-10{clip-path:url(#clip-path-19);}.cls-11{clip-path:url(#clip-path-22);}.cls-12{clip-path:url(#clip-path-23);}.cls-13{clip-path:url(#clip-path-24);}.cls-14{clip-path:url(#clip-path-25);}.cls-15{fill:#cacf85;}.cls-16{clip-path:url(#clip-path-26);}.cls-17{clip-path:url(#clip-path-30);}.cls-18{clip-path:url(#clip-path-34);}.cls-19{clip-path:url(#clip-path-37);}.cls-20{clip-path:url(#clip-path-40);}.cls-21{clip-path:url(#clip-path-43);}.cls-22{clip-path:url(#clip-path-46);}.cls-23{clip-path:url(#clip-path-47);}.cls-24{clip-path:url(#clip-path-48);}.cls-25{clip-path:url(#clip-path-49);}.cls-26{clip-path:url(#clip-path-52);}.cls-27{clip-path:url(#clip-path-55);}.cls-28{clip-path:url(#clip-path-58);}.cls-29{clip-path:url(#clip-path-61);}.cls-30{clip-path:url(#clip-path-64);}</style><clipPath id="clip-path"><rect class="cls-1" x="222.67" y="164.25" width="1.33" height="1.33"/></clipPath><clipPath id="clip-path-2"><rect class="cls-1" x="183.74" y="-127.87" width="133" height="580" transform="translate(53.58 386.26) rotate(-81.68)"/></clipPath><clipPath id="clip-path-3"><rect class="cls-1" x="183.74" y="-121.87" width="133" height="568" transform="matrix(0.14, -0.99, 0.99, 0.14, 53.58, 386.26)"/></clipPath><clipPath id="clip-path-4"><rect class="cls-1" y="133.58" width="224" height="53.33"/></clipPath><clipPath id="clip-path-7"><rect class="cls-1" x="217.33" y="161.58" width="1.33" height="1.33"/></clipPath><clipPath id="clip-path-10"><rect class="cls-1" x="278.67" y="162.92" width="1.33" height="1.33"/></clipPath><clipPath id="clip-path-13"><rect class="cls-1" x="341.33" y="168.25" width="1.33" height="1.33"/></clipPath><clipPath id="clip-path-16"><rect class="cls-1" x="277.33" y="126.92" width="222.67" height="82.67"/></clipPath><clipPath id="clip-path-19"><rect class="cls-1" x="345.33" y="145.58" width="1.33" height="1.33"/></clipPath><clipPath id="clip-path-22"><rect class="cls-1" x="222.67" y="44.11" width="1.33" height="1.33"/></clipPath><clipPath id="clip-path-23"><rect class="cls-1" x="183.74" y="-248" width="133" height="580" transform="translate(172.46 283.52) rotate(-81.68)"/></clipPath><clipPath id="clip-path-24"><rect class="cls-1" x="183.74" y="-242" width="133" height="568" transform="matrix(0.14, -0.99, 0.99, 0.14, 172.46, 283.52)"/></clipPath><clipPath id="clip-path-25"><rect class="cls-1" x="183.74" y="-248" width="133" height="580" transform="translate(172.46 283.52) rotate(-81.68)"/></clipPath><clipPath id="clip-path-26"><rect class="cls-1" y="13.44" width="224" height="53.33"/></clipPath><clipPath id="clip-path-30"><rect class="cls-1" x="217.33" y="41.44" width="1.33" height="1.33"/></clipPath><clipPath id="clip-path-34"><rect class="cls-1" x="278.67" y="42.78" width="1.33" height="1.33"/></clipPath><clipPath id="clip-path-37"><rect class="cls-1" x="341.33" y="48.11" width="1.33" height="1.33"/></clipPath><clipPath id="clip-path-40"><rect class="cls-1" x="277.33" y="6.78" width="222.67" height="82.67"/></clipPath><clipPath id="clip-path-43"><rect class="cls-1" x="345.33" y="25.44" width="1.33" height="1.33"/></clipPath><clipPath id="clip-path-46"><rect class="cls-1" x="222.67" y="-77.24" width="1.33" height="1.33"/></clipPath><clipPath id="clip-path-47"><rect class="cls-1" x="183.74" y="-369.36" width="133" height="580" transform="translate(292.53 179.73) rotate(-81.68)"/></clipPath><clipPath id="clip-path-48"><rect class="cls-1" x="183.74" y="-363.36" width="133" height="568" transform="matrix(0.14, -0.99, 0.99, 0.14, 292.53, 179.74)"/></clipPath><clipPath id="clip-path-49"><rect class="cls-1" y="-107.91" width="224" height="53.33"/></clipPath><clipPath id="clip-path-52"><rect class="cls-1" x="217.33" y="-79.91" width="1.33" height="1.33"/></clipPath><clipPath id="clip-path-55"><rect class="cls-1" x="278.67" y="-78.58" width="1.33" height="1.33"/></clipPath><clipPath id="clip-path-58"><rect class="cls-1" x="341.33" y="-73.24" width="1.33" height="1.33"/></clipPath><clipPath id="clip-path-61"><rect class="cls-1" x="277.33" y="-114.58" width="222.67" height="82.67"/></clipPath><clipPath id="clip-path-64"><rect class="cls-1" x="345.33" y="-95.91" width="1.33" height="1.33"/></clipPath></defs><g class="cls-11"><g class="cls-12"><g class="cls-13"><g class="cls-14"><path class="cls-15" d="M223.42,44.33l0,.11A.23.23,0,0,0,223.42,44.33Z"/></g></g></g></g><g class="cls-16"><g class="cls-12"><g class="cls-13"><g class="cls-14"><path class="cls-15" d="M223.39,44.44a2.36,2.36,0,0,0-.91-2.32,14.37,14.37,0,0,0-3.59-2.5,26.6,26.6,0,0,1-3.12-1.93c-1.1-.72-1.89-1.33-2.7-1.91l.55,0c2,0,4.66.22,6.24-1.06a6.21,6.21,0,0,0,1.75-2.89,2.94,2.94,0,0,0-.58-3.24,5.71,5.71,0,0,0-1.45-1.08,16.83,16.83,0,0,0-1.67-.81,44.34,44.34,0,0,0-6.26-2c-2.44-.63-3.15-.92-5.86-1.57-1-.25-2.09-.46-3.14-.65l.26-.2a4.4,4.4,0,0,0,1.94-2.7,2.74,2.74,0,0,0-1-2.31,3.55,3.55,0,0,0-1.63-.66,29,29,0,0,0-7.14.44,41,41,0,0,1-5.65.5c-1.49,0-3,0-4.49.06-1,0-2.37.08-3.11.08a50.06,50.06,0,0,0-5.77-1.19,34.58,34.58,0,0,0-5.63.66,37.06,37.06,0,0,1-5.63.22c-2.13-.06-4.28-.1-6.4-.35s-4.42-.74-6.66-.85a23.39,23.39,0,0,0-5.14.43c-2.74.48-5.42,1.19-8.13,1.79a80.3,80.3,0,0,1-14.82,1.76,112.45,112.45,0,0,1-11.45-.61l-2.72-.26c-1.68-.36-3.35-.82-5-1.17a30.07,30.07,0,0,0-4.62-.66,25.77,25.77,0,0,0-4.21.3c-2,.32-4,.85-6,1.18-3.19.49-6.41.66-9.61,1.05-3.48.36-6.94.87-10.43,1.07-3.68.26-7.37.31-11.06.29-2.41,0-4.81,0-7.22,0-2.14,0-3.14,0-5.51-.13-2.63-.14-5.26-.44-7.89-.61-3-.23-5.95-.39-8.93-.67S23,19.29,20,19c-4.39-.46-8.81-.76-13.2-1.25-3-.36-6-.82-9-1.22-2.16-.3-4.33-.52-6.49-.81-2.53-.3-5-.68-7.58-.89-2.24-.16-4.49-.17-6.74-.13-1.61.05-3.23.08-4.85.09,1.05.28,2.09.58,3.16.78,3.91.79,7.89,1.24,11.85,1.71,3.34.42,6.69.82,10,1.25,3.11.41,6.21.89,9.33,1.27,5,.56,10.08.86,15.1,1.45,2.76.34,5.51.68,8.28.93,3.32.26,6.65.46,10,.73,2.33.2,4.66.41,7,.5,4.17.13,8.33,0,12.5,0,4.34,0,8.69-.09,13-.48,2.57-.24,5.12-.6,7.69-.87,2.31-.27,4.63-.44,6.94-.69,1.46-.18,2.93-.35,4.38-.66a49,49,0,0,1,6.92-1.16,12.5,12.5,0,0,1,2.23,0,62.21,62.21,0,0,0,8,1.69l.61.07c.47.1,1,.19,1.43.25a63.73,63.73,0,0,0,8.18.54c1.58.08,3.17.14,4.75.11a82.44,82.44,0,0,0,13-1.32c2.72-.49,5.38-1.22,8.07-1.79a38.76,38.76,0,0,1,5.86-.89l.52,0a53,53,0,0,1,5.88.7,49,49,0,0,0,5.93.47c2,.06,3.92.13,5.88,0,2.2-.09,4.35-.63,6.54-.85a14,14,0,0,1,3.59.54c1.75.41,3.51.79,5.25,1.22,3.47.95,7,1.88,10.47,2.65,2.83.67,5.7,1.15,8.55,1.68,2.53.48,5,1.18,7.47,1.87a39.8,39.8,0,0,1,7.76,2.53,4.51,4.51,0,0,1,1.25.76l.21.19a1.92,1.92,0,0,1,.13.17.78.78,0,0,1,.12.43,3.76,3.76,0,0,1-.37,1.26c-.85,1.71-1.19,1.85-3.89,2H215c-.54,0-1.08,0-1.62-.06-1.54-.16-3.08-.31-4.61-.54-2.33-.42-4.65-.84-7-1.3-1.78-.35-3.59-.55-5.37-.87-1.6-.24-3.19-.57-4.8-.72a50.42,50.42,0,0,0-8.86,0c-2.27.22-4.55.37-6.82.64-1.82.2-3.63.49-5.45.65-2.31.22-3.74.13-5.45,1.94a18.74,18.74,0,0,1-3.49,3.25,13.92,13.92,0,0,1-5.36,2.68c-.71.14-1.44.27-2.17.35a15.1,15.1,0,0,0-1.77.26,14.82,14.82,0,0,0-3.55,1.58,9,9,0,0,1-1,.42,5.71,5.71,0,0,0-.58.21,3.92,3.92,0,0,1-.76.2,6,6,0,0,1-3.16-.17l-1.46-.39-1.72-.73a78.54,78.54,0,0,0-7.4-2.69,16,16,0,0,0-5.71-.71,10,10,0,0,0-1.64.25l.21-.06-.11,0a4.56,4.56,0,0,0-1.72.58,1.13,1.13,0,0,0,.16,2,5.76,5.76,0,0,0,1.88.32c.88.06,1.77.09,2.65.15a72.43,72.43,0,0,1,8,1l.63.13c.83.32,1.67.65,2.5,1a50,50,0,0,0,6.8,2.52,39.64,39.64,0,0,0,4.79,1c2,.24,4,.35,6,.63a67.37,67.37,0,0,1,7,1.53A32,32,0,0,1,170,50.75c2.51,1,3.29,1.37,3.31,3.2a7.52,7.52,0,0,1-.2,1.49,7.31,7.31,0,0,1-.69,1.85,2.07,2.07,0,0,1-.57.6,3.48,3.48,0,0,1-1.31.6,31.21,31.21,0,0,1-7.85.19,39.32,39.32,0,0,1-3.88-.67c-2.23-.39-4.44-.86-6.64-1.39.33-.64.65-1.19,1-1.72,1.1-1,2.33-2.4,2.25-3.4a.92.92,0,0,0-.9-.79c-.55,0-.86.48-1.1.9s-.45.76-.67,1.15A12.76,12.76,0,0,1,150.6,55a4.69,4.69,0,0,1-1.69.94L147,55.65a27.24,27.24,0,0,0-4.94-.43c-1.2,0-2.39.23-3.58.36a42,42,0,0,1-9.89-.19c-1.22-.12-2.44-.16-3.66-.3a31,31,0,0,1-5-.9c-1.55-.44-2.84-.69-3.78-1a23.67,23.67,0,0,1-4.82-2.42c-1-.68-2.17-1.19-3.24-1.82s-2.06-1.5-3.17-2.12c-.93-.56-1.92-1-2.88-1.52a23.12,23.12,0,0,0-2.35-1.14,24.93,24.93,0,0,0-2.62-.72.36.36,0,0,0-.11-.1,1.64,1.64,0,0,0-.62-.26L95.93,43a32.5,32.5,0,0,0-6.14-3.39,45.89,45.89,0,0,0-6.94-2.49,64,64,0,0,0-8.49-1.54c-2.06-.16-7.09-.82-8.1,1.48-1,2.81,4.38,3.76,6.27,4.27a58.21,58.21,0,0,0,5.85,1.17c2.39.34,4.79.5,7.18.82s4.9.36,7.34.62c-1.41.19-3,.4-4.13.62-2.11.33-4.18.82-6.25,1.31L75,47.62c-2.59.67-6,1.59-7.78,2-5.75,1.52-11,2.88-17.27,4.3-5.36,1.32-10.78,2.34-16.17,3.48-4.51,1-9,2-13.57,2.86-3.12.56-6.24,1.1-9.37,1.59-4.12.61-8.23,1.31-12.37,1.73-2.22.2-4.45.19-6.67.27l-5.57.18c-1.45.07-2.9.19-4.34.24-3.45.07-6.9.06-10.35.06-2.69,0-5.38,0-8.07.28-3,.28-5.93.71-8.9,1.09l-.67.09.36,0c1.3,0,2.6.16,3.9.29a68.27,68.27,0,0,0,7.57.35c2.24,0,4.48-.13,6.72-.09,3.22,0,6.44,0,9.65-.05,2.57-.11,5.14-.3,7.72-.34,2.91-.12,5.83-.11,8.73-.33,3.58-.35,7.12-.93,10.66-1.47,4-.58,7.89-1.25,11.82-2,5.26-1.05,10.5-2.23,15.75-3.33,3.79-.76,7.58-1.54,11.35-2.4,3-.73,6-1.39,9-2.12,7.8-2,16.09-4.23,22.47-5.89,3.28-.86,5.9-1.63,9.94-2.45,1.48-.29,3-.55,4.46-.83a21.12,21.12,0,0,0,2.75-.64c.88.39,1.76.78,2.6,1.24l0,0c.6.38,1.18.8,1.78,1.16.83.52,1.7,1,2.55,1.45.66.35,1.6,1,2.73,1.83a29.51,29.51,0,0,0,2.74,1.54,44.72,44.72,0,0,0,5.07,2.79,24.49,24.49,0,0,0,3.93,1.22,40.63,40.63,0,0,0,4.86,1.1c1.63.26,3.28.33,4.92.46s3.26.37,4.9.41a45.43,45.43,0,0,0,5.22-.11c1.27-.11,2.53-.34,3.81-.41a33.06,33.06,0,0,1,6.23.62,31.46,31.46,0,0,1,4.06.84l3.35.73c1.24.27,2.49.48,3.73.71a22.22,22.22,0,0,0,3.44.56,49.32,49.32,0,0,0,5.16.1,11.87,11.87,0,0,0,4.1-.67,4.7,4.7,0,0,0,2.46-2.25,10.09,10.09,0,0,0,.93-3.61c.25-3.73-2.44-4.66-5.4-5.79a37.51,37.51,0,0,0-5.79-1.75c-2-.49-3.93-1-5.93-1.33-2.24-.37-4.52-.48-6.77-.75-1.2-.18-2.29-.39-3.27-.62l.56-.2a24.93,24.93,0,0,0,2.48-1.24,5.91,5.91,0,0,1,2.31-.7,19.16,19.16,0,0,0,5.36-1.16,21.68,21.68,0,0,0,3.21-1.84,18.9,18.9,0,0,0,4-3.51,5.73,5.73,0,0,1,1.48-1.29l.26-.12a1.43,1.43,0,0,1,.27-.09c1-.21,2-.25,3.07-.38,1.41-.13,2.82-.32,4.23-.48,2.18-.27,4.37-.44,6.56-.64.94-.1,1.88-.16,2.82-.2l1.17.28a38.63,38.63,0,0,1,5.2,1.64,13.38,13.38,0,0,1,2.19,1.12l-.22-.14c.54.33,1.08.66,1.63,1s.92.54,1.39.81c1.43.89,2.86,1.78,4.36,2.55a6.35,6.35,0,0,0,2.37.65,5.2,5.2,0,0,0,1,.82l.25.16h0c1.08.65,2.27,1.13,3.36,1.8.81.48,3.59,2.52,5.22,3.51a13.92,13.92,0,0,0,3.08,1.37,7.93,7.93,0,0,0,4.24-.14A6.14,6.14,0,0,0,222.59,46a3.92,3.92,0,0,0,.8-1.54s0,0,0,0S223.39,44.46,223.39,44.44Zm-20.61-25a.77.77,0,0,1-.07.16,5.87,5.87,0,0,1-.8.92l-.46.43a4.07,4.07,0,0,1-.69.55,5.63,5.63,0,0,1-1,.4l-.12,0-1.05-.2c-2.88-.56-5.74-1.22-8.59-1.94-.24-.05-.48-.12-.71-.18h.41a74.61,74.61,0,0,0,8.29-.84,14,14,0,0,1,3.86-.13l.36.06,0,0a1.94,1.94,0,0,1,.3.13l.07.06,0,0a.38.38,0,0,1,.09.13l.06.11v.05a.68.68,0,0,1,0,.15A.13.13,0,0,1,202.78,19.46ZM87.64,41.8c-2.59-.38-5.18-.7-7.77-1a56.59,56.59,0,0,1-6.46-1.23c-1.94-.47-4-.91-5.13-1.69l-.16-.13-.1-.12h0l.08-.06.31-.14.21-.06h0a4.8,4.8,0,0,1,.66-.12,17.67,17.67,0,0,1,2.18-.1,60.69,60.69,0,0,1,10.58,1.6,56.45,56.45,0,0,1,5.92,2c1.69.56,3.37,1.09,5,1.69C91.23,42.15,89.42,42,87.64,41.8Zm63.62,14.46,0,.14-.18,0Zm70.13-12.17a.51.51,0,0,1,0,.13,2.52,2.52,0,0,1-.12.29l-.06.09-.2.24h0a3.85,3.85,0,0,1-1.09.68,5.78,5.78,0,0,1-4.3,0,13.11,13.11,0,0,1-3.11-1.72c-1-.67-2-1.33-2.94-2a29.6,29.6,0,0,0-4-2.21,6.29,6.29,0,0,0,1.63-1,2,2,0,0,0,.82-1.14,1.06,1.06,0,0,0-1.39-1.12,8.19,8.19,0,0,0-1.85.92l-.05,0-.21.11c-.64.36-.95.51-1.26.68-.84,0-1.61-.29-3.05-1.11-1.87-1.08-3-1.8-5.11-3a15.33,15.33,0,0,0-2.4-1.28l-.43-.15c1.32.18,2.63.43,4,.63,1.83.32,3.68.53,5.5.9,2.16.42,4.32.8,6.48,1.2l.66.1c.59.26,1.18.56,1.74.87h0a15.3,15.3,0,0,1,1.41,1c.72.6,1.46,1.16,2.24,1.69,1.67,1.22,2.65,1.87,4.08,2.74a2,2,0,0,0,.19.12h0l-.1-.06.1.06h0a.33.33,0,0,1,.1.06h0s0,0,0,0h0l0,0h0l0,0a14.74,14.74,0,0,1,2.4,1.75l.18.17a1.49,1.49,0,0,1,.12.14,1.47,1.47,0,0,1,.1.13.05.05,0,0,0,0,0,.09.09,0,0,0,0,.05h0A.08.08,0,0,1,221.39,44.09Z"/></g></g></g></g><g class="cls-17"><g class="cls-12"><g class="cls-13"><g class="cls-14"><path class="cls-15" d="M218.56,41.75l-.09-.06Z"/><path class="cls-15" d="M218.48,41.7l.06,0Z"/></g></g></g></g></svg>