<svg id="Layer_1" data-name="Layer 1" xmlns="http://www.w3.org/2000/svg" xmlns:xlink="http://www.w3.org/1999/xlink" viewBox="0 0 500 89.44"><defs><style>.cls-1{fill:none;}.cls-2{clip-path:url(#clip-path);}.cls-3{clip-path:url(#clip-path-2);}.cls-4{clip-path:url(#clip-path-3);}.cls-5{clip-path:url(#clip-path-4);}.cls-6{clip-path:url(#clip-path-7);}.cls-7{clip-path:url(#clip-path-10);}.cls-8{clip-path:url(#clip-path-13);}.cls-9{clip-path:url(#clip-path-16);}.cls-10{clip-path:url(#clip-path-19);}.cls-11{clip-path:url(#clip-path-22);}.cls-12{clip-path:url(#clip-path-23);}.cls-13{clip-path:url(#clip-path-24);}.cls-14{clip-path:url(#clip-path-25);}.cls-15{fill:#cacf85;}.cls-16{clip-path:url(#clip-path-26);}.cls-17{clip-path:url(#clip-path-30);}.cls-18{clip-path:url(#clip-path-34);}.cls-19{clip-path:url(#clip-path-38);}.cls-20{clip-path:url(#clip-path-42);}.cls-21{clip-path:url(#clip-path-46);}</style><clipPath id="clip-path"><rect class="cls-1" x="222.67" y="165.46" width="1.33" height="1.33"/></clipPath><clipPath id="clip-path-2"><rect class="cls-1" x="183.74" y="-126.65" width="133" height="580" transform="translate(52.38 387.3) rotate(-81.68)"/></clipPath><clipPath id="clip-path-3"><rect class="cls-1" x="183.74" y="-120.65" width="133" height="568" transform="matrix(0.14, -0.99, 0.99, 0.14, 52.38, 387.3)"/></clipPath><clipPath id="clip-path-4"><rect class="cls-1" y="134.8" width="224" height="53.33"/></clipPath><clipPath id="clip-path-7"><rect class="cls-1" x="217.33" y="162.8" width="1.33" height="1.33"/></clipPath><clipPath id="clip-path-10"><rect class="cls-1" x="278.67" y="164.13" width="1.33" height="1.33"/></clipPath><clipPath id="clip-path-13"><rect class="cls-1" x="341.33" y="169.46" width="1.33" height="1.33"/></clipPath><clipPath id="clip-path-16"><rect class="cls-1" x="277.33" y="128.13" width="222.67" height="82.67"/></clipPath><clipPath id="clip-path-19"><rect class="cls-1" x="345.33" y="146.8" width="1.33" height="1.33"/></clipPath><clipPath id="clip-path-22"><rect class="cls-1" x="222.67" y="44.11" width="1.33" height="1.33"/></clipPath><clipPath id="clip-path-23"><rect class="cls-1" x="183.74" y="-248" width="133" height="580" transform="translate(172.46 283.52) rotate(-81.68)"/></clipPath><clipPath id="clip-path-24"><rect class="cls-1" x="183.74" y="-242" width="133" height="568" transform="matrix(0.14, -0.99, 0.99, 0.14, 172.46, 283.52)"/></clipPath><clipPath id="clip-path-25"><rect class="cls-1" x="183.74" y="-248" width="133" height="580" transform="translate(172.46 283.52) rotate(-81.68)"/></clipPath><clipPath id="clip-path-26"><rect class="cls-1" y="13.44" width="224" height="53.33"/></clipPath><clipPath id="clip-path-30"><rect class="cls-1" x="217.33" y="41.44" width="1.33" height="1.33"/></clipPath><clipPath id="clip-path-34"><rect class="cls-1" x="278.67" y="42.78" width="1.33" height="1.33"/></clipPath><clipPath id="clip-path-38"><rect class="cls-1" x="341.33" y="48.11" width="1.33" height="1.33"/></clipPath><clipPath id="clip-path-42"><rect class="cls-1" x="277.33" y="6.78" width="222.67" height="82.67"/></clipPath><clipPath id="clip-path-46"><rect class="cls-1" x="345.33" y="25.44" width="1.33" height="1.33"/></clipPath></defs><g class="cls-11"><g class="cls-12"><g class="cls-13"><g class="cls-14"><path class="cls-15" d="M223.42,44.33l0,.11A.23.23,0,0,0,223.42,44.33Z"/></g></g></g></g><g class="cls-16"><g class="cls-12"><g class="cls-13"><g class="cls-14"><path class="cls-15" d="M223.39,44.44a2.36,2.36,0,0,0-.91-2.32,14.37,14.37,0,0,0-3.59-2.5,26.6,26.6,0,0,1-3.12-1.93c-1.1-.72-1.89-1.33-2.7-1.91l.55,0c2,0,4.66.22,6.24-1.06a6.21,6.21,0,0,0,1.75-2.89,2.94,2.94,0,0,0-.58-3.24,5.71,5.71,0,0,0-1.45-1.08,16.83,16.83,0,0,0-1.67-.81,44.34,44.34,0,0,0-6.26-2c-2.44-.63-3.15-.92-5.86-1.57-1-.25-2.09-.46-3.14-.65l.26-.2a4.4,4.4,0,0,0,1.94-2.7,2.74,2.74,0,0,0-1-2.31,3.55,3.55,0,0,0-1.63-.66,29,29,0,0,0-7.14.44,41,41,0,0,1-5.65.5c-1.49,0-3,0-4.49.06-1,0-2.37.08-3.11.08a50.06,50.06,0,0,0-5.77-1.19,34.58,34.58,0,0,0-5.63.66,37.06,37.06,0,0,1-5.63.22c-2.13-.06-4.28-.1-6.4-.35s-4.42-.74-6.66-.85a23.39,23.39,0,0,0-5.14.43c-2.74.48-5.42,1.19-8.13,1.79a80.3,80.3,0,0,1-14.82,1.76,112.45,112.45,0,0,1-11.45-.61l-2.72-.26c-1.68-.36-3.35-.82-5-1.17a30.07,30.07,0,0,0-4.62-.66,25.77,25.77,0,0,0-4.21.3c-2,.32-4,.85-6,1.18-3.19.49-6.41.66-9.61,1.05-3.48.36-6.94.87-10.43,1.07-3.68.26-7.37.31-11.06.29-2.41,0-4.81,0-7.22,0-2.14,0-3.14,0-5.51-.13-2.63-.14-5.26-.44-7.89-.61-3-.23-5.95-.39-8.93-.67S23,19.29,20,19c-4.39-.46-8.81-.76-13.2-1.25-3-.36-6-.82-9-1.22-2.16-.3-4.33-.52-6.49-.81-2.53-.3-5-.68-7.58-.89-2.24-.16-4.49-.17-6.74-.13-1.61.05-3.23.08-4.85.09,1.05.28,2.09.58,3.16.78,3.91.79,7.89,1.24,11.85,1.71,3.34.42,6.69.82,10,1.25,3.11.41,6.21.89,9.33,1.27,5,.56,10.08.86,15.1,1.45,2.76.34,5.51.68,8.28.93,3.32.26,6.65.46,10,.73,2.33.2,4.66.41,7,.5,4.17.13,8.33,0,12.5,0,4.34,0,8.69-.09,13-.48,2.57-.24,5.12-.6,7.69-.87,2.31-.27,4.63-.44,6.94-.69,1.46-.18,2.93-.35,4.38-.66a49,49,0,0,1,6.92-1.16,12.5,12.5,0,0,1,2.23,0,62.21,62.21,0,0,0,8,1.69l.61.07c.47.1,1,.19,1.43.25a63.73,63.73,0,0,0,8.18.54c1.58.08,3.17.14,4.75.11a82.44,82.44,0,0,0,13-1.32c2.72-.49,5.38-1.22,8.07-1.79a38.76,38.76,0,0,1,5.86-.89l.52,0a53,53,0,0,1,5.88.7,49,49,0,0,0,5.93.47c2,.06,3.92.13,5.88,0,2.2-.09,4.35-.63,6.54-.85a14,14,0,0,1,3.59.54c1.75.41,3.51.79,5.25,1.22,3.47.95,7,1.88,10.47,2.65,2.83.67,5.7,1.15,8.55,1.68,2.53.48,5,1.18,7.47,1.87a39.8,39.8,0,0,1,7.76,2.53,4.51,4.51,0,0,1,1.25.76l.21.19a1.92,1.92,0,0,1,.13.17.78.78,0,0,1,.12.43,3.76,3.76,0,0,1-.37,1.26c-.85,1.71-1.19,1.85-3.89,2H215c-.54,0-1.08,0-1.62-.06-1.54-.16-3.08-.31-4.61-.54-2.33-.42-4.65-.84-7-1.3-1.78-.35-3.59-.55-5.37-.87-1.6-.24-3.19-.57-4.8-.72a50.42,50.42,0,0,0-8.86,0c-2.27.22-4.55.37-6.82.64-1.82.2-3.63.49-5.45.65-2.31.22-3.74.13-5.45,1.94a18.74,18.74,0,0,1-3.49,3.25,13.92,13.92,0,0,1-5.36,2.68c-.71.14-1.44.27-2.17.35a15.1,15.1,0,0,0-1.77.26,14.82,14.82,0,0,0-3.55,1.58,9,9,0,0,1-1,.42,5.71,5.71,0,0,0-.58.21,3.92,3.92,0,0,1-.76.2,6,6,0,0,1-3.16-.17l-1.46-.39-1.72-.73a78.54,78.54,0,0,0-7.4-2.69,16,16,0,0,0-5.71-.71,10,10,0,0,0-1.64.25l.21-.06-.11,0a4.56,4.56,0,0,0-1.72.58,1.13,1.13,0,0,0,.16,2,5.76,5.76,0,0,0,1.88.32c.88.06,1.77.09,2.65.15a72.43,72.43,0,0,1,8,1l.63.13c.83.32,1.67.65,2.5,1a50,50,0,0,0,6.8,2.52,39.64,39.64,0,0,0,4.79,1c2,.24,4,.35,6,.63a67.37,67.37,0,0,1,7,1.53A32,32,0,0,1,170,50.75c2.51,1,3.29,1.37,3.31,3.2a7.52,7.52,0,0,1-.2,1.49,7.31,7.31,0,0,1-.69,1.85,2.07,2.07,0,0,1-.57.6,3.48,3.48,0,0,1-1.31.6,31.21,31.21,0,0,1-7.85.19,39.32,39.32,0,0,1-3.88-.67c-2.23-.39-4.44-.86-6.64-1.39.33-.64.65-1.19,1-1.72,1.1-1,2.33-2.4,2.25-3.4a.92.92,0,0,0-.9-.79c-.55,0-.86.48-1.1.9s-.45.76-.67,1.15A12.76,12.76,0,0,1,150.6,55a4.69,4.69,0,0,1-1.69.94L147,55.65a27.24,27.24,0,0,0-4.94-.43c-1.2,0-2.39.23-3.58.36a42,42,0,0,1-9.89-.19c-1.22-.12-2.44-.16-3.66-.3a31,31,0,0,1-5-.9c-1.55-.44-2.84-.69-3.78-1a23.67,23.67,0,0,1-4.82-2.42c-1-.68-2.17-1.19-3.24-1.82s-2.06-1.5-3.17-2.12c-.93-.56-1.92-1-2.88-1.52a23.12,23.12,0,0,0-2.35-1.14,24.93,24.93,0,0,0-2.62-.72.36.36,0,0,0-.11-.1,1.64,1.64,0,0,0-.62-.26L95.93,43a32.5,32.5,0,0,0-6.14-3.39,45.89,45.89,0,0,0-6.94-2.49,64,64,0,0,0-8.49-1.54c-2.06-.16-7.09-.82-8.1,1.48-1,2.81,4.38,3.76,6.27,4.27a58.21,58.21,0,0,0,5.85,1.17c2.39.34,4.79.5,7.18.82s4.9.36,7.34.62c-1.41.19-3,.4-4.13.62-2.11.33-4.18.82-6.25,1.31L75,47.62c-2.59.67-6,1.59-7.78,2-5.75,1.52-11,2.88-17.27,4.3-5.36,1.32-10.78,2.34-16.17,3.48-4.51,1-9,2-13.57,2.86-3.12.56-6.24,1.1-9.37,1.59-4.12.61-8.23,1.31-12.37,1.73-2.22.2-4.45.19-6.67.27l-5.57.18c-1.45.07-2.9.19-4.34.24-3.45.07-6.9.06-10.35.06-2.69,0-5.38,0-8.07.28-3,.28-5.93.71-8.9,1.09l-.67.09.36,0c1.3,0,2.6.16,3.9.29a68.27,68.27,0,0,0,7.57.35c2.24,0,4.48-.13,6.72-.09,3.22,0,6.44,0,9.65-.05,2.57-.11,5.14-.3,7.72-.34,2.91-.12,5.83-.11,8.73-.33,3.58-.35,7.12-.93,10.66-1.47,4-.58,7.89-1.25,11.82-2,5.26-1.05,10.5-2.23,15.75-3.33,3.79-.76,7.58-1.54,11.35-2.4,3-.73,6-1.39,9-2.12,7.8-2,16.09-4.23,22.47-5.89,3.28-.86,5.9-1.63,9.94-2.45,1.48-.29,3-.55,4.46-.83a21.12,21.12,0,0,0,2.75-.64c.88.39,1.76.78,2.6,1.24l0,0c.6.38,1.18.8,1.78,1.16.83.52,1.7,1,2.55,1.45.66.35,1.6,1,2.73,1.83a29.51,29.51,0,0,0,2.74,1.54,44.72,44.72,0,0,0,5.07,2.79,24.49,24.49,0,0,0,3.93,1.22,40.63,40.63,0,0,0,4.86,1.1c1.63.26,3.28.33,4.92.46s3.26.37,4.9.41a45.43,45.43,0,0,0,5.22-.11c1.27-.11,2.53-.34,3.81-.41a33.06,33.06,0,0,1,6.23.62,31.46,31.46,0,0,1,4.06.84l3.35.73c1.24.27,2.49.48,3.73.71a22.22,22.22,0,0,0,3.44.56,49.32,49.32,0,0,0,5.16.1,11.87,11.87,0,0,0,4.1-.67,4.7,4.7,0,0,0,2.46-2.25,10.09,10.09,0,0,0,.93-3.61c.25-3.73-2.44-4.66-5.4-5.79a37.51,37.51,0,0,0-5.79-1.75c-2-.49-3.93-1-5.93-1.33-2.24-.37-4.52-.48-6.77-.75-1.2-.18-2.29-.39-3.27-.62l.56-.2a24.93,24.93,0,0,0,2.48-1.24,5.91,5.91,0,0,1,2.31-.7,19.16,19.16,0,0,0,5.36-1.16,21.68,21.68,0,0,0,3.21-1.84,18.9,18.9,0,0,0,4-3.51,5.73,5.73,0,0,1,1.48-1.29l.26-.12a1.43,1.43,0,0,1,.27-.09c1-.21,2-.25,3.07-.38,1.41-.13,2.82-.32,4.23-.48,2.18-.27,4.37-.44,6.56-.64.94-.1,1.88-.16,2.82-.2l1.17.28a38.63,38.63,0,0,1,5.2,1.64,13.38,13.38,0,0,1,2.19,1.12l-.22-.14c.54.33,1.08.66,1.63,1s.92.54,1.39.81c1.43.89,2.86,1.78,4.36,2.55a6.35,6.35,0,0,0,2.37.65,5.2,5.2,0,0,0,1,.82l.25.16h0c1.08.65,2.27,1.13,3.36,1.8.81.48,3.59,2.52,5.22,3.51a13.92,13.92,0,0,0,3.08,1.37,7.93,7.93,0,0,0,4.24-.14A6.14,6.14,0,0,0,222.59,46a3.92,3.92,0,0,0,.8-1.54s0,0,0,0S223.39,44.46,223.39,44.44Zm-20.61-25a.77.77,0,0,1-.07.16,5.87,5.87,0,0,1-.8.92l-.46.43a4.07,4.07,0,0,1-.69.55,5.63,5.63,0,0,1-1,.4l-.12,0-1.05-.2c-2.88-.56-5.74-1.22-8.59-1.94-.24-.05-.48-.12-.71-.18h.41a74.61,74.61,0,0,0,8.29-.84,14,14,0,0,1,3.86-.13l.36.06,0,0a1.94,1.94,0,0,1,.3.13l.07.06,0,0a.38.38,0,0,1,.09.13l.06.11v.05a.68.68,0,0,1,0,.15A.13.13,0,0,1,202.78,19.46ZM87.64,41.8c-2.59-.38-5.18-.7-7.77-1a56.59,56.59,0,0,1-6.46-1.23c-1.94-.47-4-.91-5.13-1.69l-.16-.13-.1-.12h0l.08-.06.31-.14.21-.06h0a4.8,4.8,0,0,1,.66-.12,17.67,17.67,0,0,1,2.18-.1,60.69,60.69,0,0,1,10.58,1.6,56.45,56.45,0,0,1,5.92,2c1.69.56,3.37,1.09,5,1.69C91.23,42.15,89.42,42,87.64,41.8Zm63.62,14.46,0,.14-.18,0Zm70.13-12.17a.51.51,0,0,1,0,.13,2.52,2.52,0,0,1-.12.29l-.06.09-.2.24h0a3.85,3.85,0,0,1-1.09.68,5.78,5.78,0,0,1-4.3,0,13.11,13.11,0,0,1-3.11-1.72c-1-.67-2-1.33-2.94-2a29.6,29.6,0,0,0-4-2.21,6.29,6.29,0,0,0,1.63-1,2,2,0,0,0,.82-1.14,1.06,1.06,0,0,0-1.39-1.12,8.19,8.19,0,0,0-1.85.92l-.05,0-.21.11c-.64.36-.95.51-1.26.68-.84,0-1.61-.29-3.05-1.11-1.87-1.08-3-1.8-5.11-3a15.33,15.33,0,0,0-2.4-1.28l-.43-.15c1.32.18,2.63.43,4,.63,1.83.32,3.68.53,5.5.9,2.16.42,4.32.8,6.48,1.2l.66.1c.59.26,1.18.56,1.74.87h0a15.3,15.3,0,0,1,1.41,1c.72.6,1.46,1.16,2.24,1.69,1.67,1.22,2.65,1.87,4.08,2.74a2,2,0,0,0,.19.12h0l-.1-.06.1.06h0a.33.33,0,0,1,.1.06h0s0,0,0,0h0l0,0h0l0,0a14.74,14.74,0,0,1,2.4,1.75l.18.17a1.49,1.49,0,0,1,.12.14,1.47,1.47,0,0,1,.1.13.05.05,0,0,0,0,0,.09.09,0,0,0,0,.05h0A.08.08,0,0,1,221.39,44.09Z"/></g></g></g></g><g class="cls-17"><g class="cls-12"><g class="cls-13"><g class="cls-14"><path class="cls-15" d="M218.56,41.75l-.09-.06Z"/><path class="cls-15" d="M218.48,41.7l.06,0Z"/></g></g></g></g><g class="cls-18"><g class="cls-12"><g class="cls-13"><g class="cls-14"><path class="cls-15" d="M279.71,44.06h0a0,0,0,0,0,0,0h0Z"/></g></g></g></g><g class="cls-19"><g class="cls-12"><g class="cls-13"><g class="cls-14"><path class="cls-15" d="M342.32,48.66h0Z"/></g></g></g></g><g class="cls-20"><g class="cls-12"><g class="cls-13"><g class="cls-14"><path class="cls-15" d="M536.64,75.78c-1.88-.58-3.8-1-5.7-1.44-.89-.22-2.64-.8-4.14-1.23s-2.73-.72-4.1-1.07c-5.09-1.32-8.87-2.35-13.9-4.08-3.39-1.17-6.74-2.47-10.15-3.57-3.94-1.27-7.95-2.34-11.9-3.57-7-2.21-13.83-4.73-20.73-7.15-5.18-1.82-10.34-3.66-15.57-5.31-4.32-1.39-8.61-2.87-12.94-4.23-3.11-1-6.3-1.73-9.46-2.51-2.85-.72-5.69-1.53-8.58-2.11a47.52,47.52,0,0,0-4.77-.64l.81-.4A8.85,8.85,0,0,0,419,36.1c1-1.19.83-2.72-.8-3.23a6.22,6.22,0,0,0-3.49.56,10.52,10.52,0,0,0-4.61,4c-.3.47-.59.93-.86,1.42a2.76,2.76,0,0,0-.36,1c-.25.19-.51.38-.75.59a17,17,0,0,0-1.83,1.67A33.06,33.06,0,0,1,404,44.52c-2.41,2.23-4.94,4.32-7.34,6.56-2.06,1.76-4.26,3.37-6.42,5s-3.52,1.84-6.54,2.22a16.23,16.23,0,0,0-3.87,1.07,36.57,36.57,0,0,0-3.42,1.79c-1.28.71-2.6,1.36-3.88,2.1a28.18,28.18,0,0,0-4.19,3c-1.8,1.47-3.55,3-5.22,4.62s-2.58,2.85-3.92,4l-.32-.37a11.26,11.26,0,0,0-3.79-2.89,2.76,2.76,0,0,0-1.81-.16,1.11,1.11,0,0,0-.64,1.43,3.35,3.35,0,0,0,.77,1c.36.38.72.76,1.06,1.17.57.59,1.09,1.64,1.76,2.34-.19.17-.39.34-.66.54a29.49,29.49,0,0,1-2.94,1.83c-.58.35-1.15.7-1.73,1l-.08,0-.14.08a19.44,19.44,0,0,0-3,1.81c-.67.53-1.28,1.12-2,1.64a7.2,7.2,0,0,1-1.6.94,11.25,11.25,0,0,1-4.33,1,6.12,6.12,0,0,1-1.89,0h0l-.09-.08-.08-.11a2.55,2.55,0,0,1-.14-.35,1.67,1.67,0,0,1-.05-.31,7.29,7.29,0,0,1,.52-2.83,34.25,34.25,0,0,1,6.21-9.9,39.79,39.79,0,0,1,7.58-5.27,26.29,26.29,0,0,0,8.3-7.86c1.49-2.09,2.74-4.33,4.08-6.51a25.82,25.82,0,0,1,1.49-2.35A21.53,21.53,0,0,1,369,47.42c1.8-1.53,3.63-3,5.37-4.6a13.8,13.8,0,0,0,2.34-2.49,2.83,2.83,0,0,0,.49-3.12c-.37-1.19-1.83-1.43-2.89-1.07a12.86,12.86,0,0,0-4.3,2.37,44.08,44.08,0,0,0-4.46,3.71,16.88,16.88,0,0,0-2.36,2.64,15.21,15.21,0,0,0-1.83,3.42l-.09.3c-1.16-.64-2.36-1.2-3.56-1.78s-2.25-1.09-3.35-1.68a5.53,5.53,0,0,1-2-1.59l-.07-.15a4.91,4.91,0,0,1-.09-.94v-.13c0-.9.1-1.8.18-2.7.05-.53.11-1.06.16-1.59a1.44,1.44,0,0,0-.16-1.15,1,1,0,0,0-1.45-.21,1.42,1.42,0,0,0-.49.88c-.14.48-.28,1-.4,1.43-.3,1.11-.43,1.67-.6,2.2a3.89,3.89,0,0,1-.29.66,1.81,1.81,0,0,1-.25.3,2.31,2.31,0,0,1-.23.18,3.38,3.38,0,0,1-.63.23l-.1,0a16.8,16.8,0,0,1-2.91.3,32.94,32.94,0,0,1-3.51-.09,25.44,25.44,0,0,1-3.13-.37s0-.06,0-.1a3.81,3.81,0,0,1,0-1.11,12.18,12.18,0,0,0,.3-1.19,2.63,2.63,0,0,0,.09-1.36,1.05,1.05,0,0,0-1.78-.26c-.21.23-.19.52-.29.79a13.66,13.66,0,0,0-.34,1.54c0,.08-.08.18-.14.29s-.06.07-.08.11-.28.22-.43.32a6.78,6.78,0,0,1-1.06.4l-.25.07-.67.16c-1.89.32-3.8.49-5.71.68-2.3.21-4.61.27-6.9.42-1.5.08-3,.27-4.49.4a48.07,48.07,0,0,0-6.45.52c-2.44.44-4.83,1.15-7.3,1.35-1.61.11-1.85,0-3.66,0-1.6.05-3.19.27-4.79.29s-2.13,0-4.18-.07a46.94,46.94,0,0,1-6-.45,15.63,15.63,0,0,1-4.25-1,.4.4,0,0,1-.12-.1l-.16-.21a.58.58,0,0,1-.06-.15,1.81,1.81,0,0,1,0-.23l0-.21a2.58,2.58,0,0,1,.13-.31,2.88,2.88,0,0,1,.22-.27c.12-.19.61-.61.22-.24a3.25,3.25,0,0,1,.52-.37L281,42a34.61,34.61,0,0,1,5.35-1.69c3-.87,4.75-1.33,7.84-2,2.58-.6,5.13-1.32,7.7-2A68.25,68.25,0,0,0,310,33.71c1.12-.41,2.21-.92,3.35-1.29a12.34,12.34,0,0,1,2.58-.26c1.46,0,2.92,0,4.38-.1,1.29-.06,2.57-.17,3.85-.25s2.52-.17,3.77-.38a34.43,34.43,0,0,0,3.65-.82c2.84-.75,5.73-1.25,8.55-2.08A22.35,22.35,0,0,0,344,27c.56-.29,1.11-.6,1.66-.91a9.27,9.27,0,0,1,4.37-1.3c1.33-.15,2.65-.22,4-.36s2.43-.33,3.65-.49c3.26-.38,6.51-.85,9.76-1.3,1.62-.22,3.25-.41,4.86-.68s3.44-.65,5.16-1a64.3,64.3,0,0,0,8.79-2.12c3.48-1.15,7.05-2,10.46-3.39,2-.77,4-1.74,6-2.5,3-1.12,6-2.12,9-3.06a12.68,12.68,0,0,1,3.53-.63,33.88,33.88,0,0,1,5.35.49c2,.33,4,.77,6.07,1.12,5.54,1,11.16,1.4,16.74,1.95,9.57,1,19.16,1.68,28.76,2.27,5.07.34,10.15.51,15.22.8,8.54.54,17.07,1.27,25.62,1.67,5.49.27,11,.78,16.46,1,3.74.16,7.48.33,11.22.2l3.29-.11,1.77-.07h.72l-.61-.15a72.9,72.9,0,0,0-10.27-1.62c-2.6-.2-5.2-.23-7.8-.38-5.22-.26-10.43-.74-15.66-1-8.11-.4-16.2-1.09-24.3-1.6-7.1-.37-14.2-.68-21.29-1.2-8.23-.52-16.45-1.25-24.66-2.06-5.46-.51-10.92-1-16.3-2-3.71-.69-7.46-1.56-11.25-1.33a22.67,22.67,0,0,0-4.6,1.1c-2.72.9-5.46,1.77-8.12,2.81-2.14.81-4.21,1.83-6.36,2.61-3.53,1.33-7.18,2.26-10.76,3.45A65.5,65.5,0,0,1,377,18.9c-1.8.36-3.6.73-5.41,1s-3.66.5-5.49.75c-3.06.45-5.95.82-9,1.2-1.2.16-2.41.36-3.61.47s-2.48.2-3.72.34a15,15,0,0,0-3.51.75,15.51,15.51,0,0,0-1.9,1l.22-.12-.39.21a22.87,22.87,0,0,1-5,2.14c-1.83.56-5.15,1.19-7.8,1.89-1.17.29-2.35.61-3.55.81a37,37,0,0,1-3.94.41c-1.42.08-2.83.21-4.26.26-1.64.05-3.28,0-4.92.12a15.84,15.84,0,0,0-5.32,1.57,53.71,53.71,0,0,1-6.06,2c-2.54.68-6,1.64-7.7,2.06-2.74.66-5.48,1.27-8.19,2-1.29.36-2.59.73-3.89,1.07a17.62,17.62,0,0,0-4.15,1.56,4,4,0,0,0-2,2.73A2.88,2.88,0,0,0,279,46.09a16.82,16.82,0,0,0,4.26,1.11,48.37,48.37,0,0,0,5.1.5,73.68,73.68,0,0,0,9.16-.06c.95-.08,1.91-.13,2.87-.12a21.49,21.49,0,0,0,4.09-.2c2-.28,3.86-.8,5.8-1.16a30.26,30.26,0,0,1,4.14-.43,19.91,19.91,0,0,1-.71,2.06q-1,2.3-1.84,4.67c-.72,2-1.27,4-1.8,6.09s-1.14,4.31-1.51,6.5a18,18,0,0,0-.22,3.44,26.64,26.64,0,0,0,1.1,4.19c.72,1.95,2,5,2.24,6.11a31.21,31.21,0,0,1,.76,3.68,5.61,5.61,0,0,0,1.22,3.35A6.28,6.28,0,0,0,317,87.93a3.7,3.7,0,0,0,3.65-1.31,6,6,0,0,0,.83-1.8,13.63,13.63,0,0,0,.57-2.53,3.37,3.37,0,0,0,1.16-.52,8.65,8.65,0,0,0,2-2.6c.15-.26.3-.51.44-.77a2.82,2.82,0,0,0,2.83,1.92,8.15,8.15,0,0,0,5-1.77,6.63,6.63,0,0,0,1.75-2.28A29,29,0,0,0,337,72.5c.59-1.68,1-3.41,1.71-5,.61-1.43.9-1.46,2.15-2.74,2-2.27,2.65-5.65,4.24-7.29a25.41,25.41,0,0,1,4.71-3.71,8.65,8.65,0,0,1,2.32-1.08c.77-.16,1.57-.21,2.34-.33s1.78-.34,2.68-.45a25.66,25.66,0,0,1,3.28-.18q.38,0,.75,0l.25.07a1.58,1.58,0,0,0,.93.67,54.2,54.2,0,0,1-5.95,8.75,20.75,20.75,0,0,1-6.14,5,34.94,34.94,0,0,0-7.61,5.47,31.13,31.13,0,0,0-3.52,4.72c-1.66,2.68-4.85,8-3.07,11a3,3,0,0,0,3,1.23,15.7,15.7,0,0,0,4.47-.66,12.27,12.27,0,0,0,3.08-1.46,26.06,26.06,0,0,0,2.17-1.76,16.65,16.65,0,0,1,3.13-1.94c1.44-.86,2.91-1.67,4.32-2.58a14.52,14.52,0,0,0,2.59-2.23l.08-.08A17.58,17.58,0,0,0,362,75.12c1.45-1.55,2.6-2.86,3.74-3.85,1.4-1.26,2.82-2.5,4.29-3.69a28.66,28.66,0,0,1,3.43-2.47c.75-.47,2.47-1.31,3.9-2.11,1-.55,1.55-.92,3-1.59a14.08,14.08,0,0,1,2.7-.89c1.53-.29,3.1-.37,4.61-.81a11.8,11.8,0,0,0,4.19-2.24c1.12-.84,2.24-1.7,3.35-2.55,1-.74,1.92-1.49,2.83-2.29s2-1.85,3-2.73c1.69-1.46,3.38-2.93,5-4.48.77-.74,1.41-1.58,2.16-2.33a19.59,19.59,0,0,1,2.89-2.24,36,36,0,0,1,8.42.78c3.33.7,6.59,1.66,9.9,2.45a165.15,165.15,0,0,1,15.85,4.75c3.17,1.06,6.35,2.06,9.51,3.11,3,1,5.92,2.06,8.88,3.1,7,2.45,14,5,21.09,7.3,3.12,1,6.29,1.88,9.43,2.83,4.57,1.29,9,3,13.48,4.59,6.7,2.32,13.58,4.09,20.47,5.75a29.87,29.87,0,0,0,6.33.62l1.38,0,1.23,0a8.89,8.89,0,0,1,.89.07l0,0s.07,0,.1,0h0A8.57,8.57,0,0,0,536.64,75.78ZM364.3,46.89a23,23,0,0,1,5.47-5.6,32.21,32.21,0,0,1,3.65-2.6c.11,0,.61-.3.77-.35s.62-.21.76-.26l.33,0h0c0,.08,0,.15.07.22s0,.14,0,.2a.36.36,0,0,1,0,.1l-.11.23c-.19.28-.4.55-.61.83a15.14,15.14,0,0,1-2,2c-3.05,2.8-6.68,5.13-9,8.63a3.78,3.78,0,0,0-.55-.51A9.13,9.13,0,0,1,364.3,46.89Zm-19.89-2c1.75,0,4.43,0,5.79-1.25a5.2,5.2,0,0,0,.21.67c.89,1.86,3.81,3,5.6,3.93,1.5.71,4,1.93,5,2.53a.5.5,0,0,0,0,.12l-1-.22a16.07,16.07,0,0,0-5.66-.25l-1,0c-1.16,0-2.31,0-3.46.12s-2,.28-3,.3h-.13a7.49,7.49,0,0,1-4.43-2.24c.08.07.15.16.05,0l-.06-.05-.06-.06.05,0a6.9,6.9,0,0,1-.74-.95c-.31-.45-.59-.92-.86-1.4s-.53-1-.79-1.59C341.41,44.87,342.92,44.92,344.41,44.93ZM319.05,85.28l-.16.21h0a3.92,3.92,0,0,1-.32.25h0a1,1,0,0,1-.21.09,2.25,2.25,0,0,1-.36.06l-.25,0-.28,0-.25,0-.33-.13-.4-.2-.39-.29a4.21,4.21,0,0,1-1.13-1.17v0a2.74,2.74,0,0,1-.21-.54h0c-.16-.75-.22-1.51-.36-2.26A32.14,32.14,0,0,0,313,76.29c-.53-1.47-1.15-2.89-1.69-4.35a28.66,28.66,0,0,1-.91-3.29,8.07,8.07,0,0,1,.05-2.48,60.85,60.85,0,0,1,1.8-8,55.94,55.94,0,0,1,2.34-7.25c.39-1.07.92-2.08,1.28-3.16.25-.68.45-1.38.64-2.09l1.18.07a35.24,35.24,0,0,0,5.34-.23c1.06-.14,2.06-.34,3-.55.66,0,1.3-.08,1.95-.14,2-.2,4-.37,5.94-.71a10.8,10.8,0,0,0,2.46-.77,1.82,1.82,0,0,0,.62.78c-.27.33-.12.2-.63.54a20.77,20.77,0,0,0-3.28,1.61,39.81,39.81,0,0,1-4.62,3,9.37,9.37,0,0,1-1.16.53h0A3.91,3.91,0,0,1,326,49.4c-1-.34-2.89-1.62-3.84-.9s-.37,1.64.28,2.22A11.8,11.8,0,0,0,324,51.87h0a3.42,3.42,0,0,1-.26,1.08c-.4,1.24-.75,2.5-1,3.78s-.53,2.41-.71,3.63a19.58,19.58,0,0,1-.41,2.64,7.67,7.67,0,0,1-.45,1.21,14.48,14.48,0,0,1-1.33,2.34c-.26.21-.62.32-1.83.41-.79,0-1.59,0-2.39.08a2.72,2.72,0,0,0-1.83.56,1.07,1.07,0,0,0,.17,1.48,3.92,3.92,0,0,0,2.6.23c.82-.08,1.64-.15,2.45-.28a5.75,5.75,0,0,0,.84-.22c0,.34,0,.67,0,1,0,.81.11,1.6.16,2.4.06,1.35.22,2.69.29,4a31.42,31.42,0,0,1-.08,3.83A13.08,13.08,0,0,1,319.05,85.28Zm3.54-4.14a3.65,3.65,0,0,1-.49.42,5.42,5.42,0,0,0,.06-.58,44.21,44.21,0,0,0,.15-4.46c0-1.43-.23-2.85-.29-4.28,0-.83-.18-1.66-.2-2.49a11.79,11.79,0,0,1,.09-1.52,3.28,3.28,0,0,0,0-.94l0-.07.06-.1a17.31,17.31,0,0,0,1.53-3.19,16.37,16.37,0,0,0,.61-3.41c.24-1.49.57-3,.91-4.44.27-1.09.3-1.12.71-2.44a5.07,5.07,0,0,0,.37-2,4.75,4.75,0,0,0,1.46.24,7.19,7.19,0,0,0,2.37-1,52.45,52.45,0,0,0,4.82-3.15,13,13,0,0,1,1.93-.88,5.58,5.58,0,0,0,1.58-.93c.08.17.18.37.31.62a15.51,15.51,0,0,0,2.38,3.6l-.16.11a17,17,0,0,0-2.76,2.4c-.22.19-.44.41-.69.65l-1.6,1.33a14.53,14.53,0,0,0-1.86,1.82c-.14.1-.28.2-.43.29-.15-.34-.31-.68-.47-1s-.45-1-.95-1.22a1.05,1.05,0,0,0-1.48.78A3.07,3.07,0,0,0,331,57a6.1,6.1,0,0,0,.83,1.33c0,.08,0,.15.08.41s0,.2,0,.28a21.38,21.38,0,0,0-1.24,2c-.47.89-.88,1.8-1.31,2.71a20.82,20.82,0,0,0-2.28,3.4,29.27,29.27,0,0,0-.76,3.07c-.08.36-.16.73-.23,1.1a59.5,59.5,0,0,1-1.95,6.52A12.7,12.7,0,0,1,322.59,81.14ZM343.51,56c-1.37,1.49-2,3.47-2.93,5.25a9.17,9.17,0,0,1-2.44,3.16,8.14,8.14,0,0,0-1.69,3c-.55,1.54-1,3.14-1.55,4.67a27.93,27.93,0,0,1-1.81,3.83,5.14,5.14,0,0,1-.6.79,6.2,6.2,0,0,1-.77.58,4.37,4.37,0,0,1-.84.46,6,6,0,0,1-1.86.5,2.06,2.06,0,0,1-1,0l-.16-.07-.17-.13-.06-.08a3.38,3.38,0,0,1-.19-1.62,39.48,39.48,0,0,1,.83-5.5c0-.11.06-.24.11-.41s.11-.32.15-.47l.12-.4a28.25,28.25,0,0,1,1.08-2.84c.64-.9,1.6-2.15,2.22-3A7.69,7.69,0,0,0,334,59l.26-.34a15.84,15.84,0,0,0,3-2.42c1.58-1.45,2.74-2.71,3.93-3.72a17.38,17.38,0,0,1,1.44-1c.29.17.58.35.88.5a7.56,7.56,0,0,0,3.77,1l-.37.26A17,17,0,0,0,343.51,56Zm68.91-18.27a8,8,0,0,1,1.33-1.34A7.45,7.45,0,0,1,416.59,35l.79-.13a7.56,7.56,0,0,1-3,1.88C413.71,37.05,413.07,37.4,412.42,37.76Z"/></g></g></g></g><g class="cls-21"><g class="cls-12"><g class="cls-13"><g class="cls-14"><path class="cls-15" d="M345.88,25.93l-.19.11,0,0Z"/></g></g></g></g></svg>