<svg id="Layer_1" data-name="Layer 1" xmlns="http://www.w3.org/2000/svg" xmlns:xlink="http://www.w3.org/1999/xlink" viewBox="0 0 227.43 89.44"><defs><style>.cls-1{fill:none;}.cls-2{clip-path:url(#clip-path);}.cls-3{clip-path:url(#clip-path-2);}.cls-4{clip-path:url(#clip-path-3);}.cls-5{clip-path:url(#clip-path-4);}.cls-6{clip-path:url(#clip-path-7);}.cls-7{clip-path:url(#clip-path-10);}.cls-8{clip-path:url(#clip-path-13);}.cls-9{fill:#cacf85;}.cls-10{clip-path:url(#clip-path-14);}.cls-11{clip-path:url(#clip-path-18);}.cls-12{clip-path:url(#clip-path-22);}.cls-13{clip-path:url(#clip-path-26);}.cls-14{clip-path:url(#clip-path-27);}.cls-15{clip-path:url(#clip-path-28);}.cls-16{clip-path:url(#clip-path-29);}.cls-17{clip-path:url(#clip-path-32);}.cls-18{clip-path:url(#clip-path-35);}.cls-19{clip-path:url(#clip-path-38);}.cls-20{clip-path:url(#clip-path-41);}.cls-21{clip-path:url(#clip-path-44);}</style><clipPath id="clip-path"><rect class="cls-1" x="-49.9" y="44.11" width="1.33" height="1.33"/></clipPath><clipPath id="clip-path-2"><rect class="cls-1" x="-88.83" y="-248" width="133" height="580" transform="translate(-60.65 13.82) rotate(-81.68)"/></clipPath><clipPath id="clip-path-3"><rect class="cls-1" x="-88.83" y="-242" width="133" height="568" transform="matrix(0.14, -0.99, 0.99, 0.14, -60.65, 13.82)"/></clipPath><clipPath id="clip-path-4"><rect class="cls-1" x="-272.57" y="13.44" width="224" height="53.33"/></clipPath><clipPath id="clip-path-7"><rect class="cls-1" x="-55.23" y="41.44" width="1.33" height="1.33"/></clipPath><clipPath id="clip-path-10"><rect class="cls-1" x="6.1" y="42.78" width="1.33" height="1.33"/></clipPath><clipPath id="clip-path-13"><rect class="cls-1" x="-88.82" y="-248" width="133" height="580" transform="translate(-60.64 13.83) rotate(-81.68)"/></clipPath><clipPath id="clip-path-14"><rect class="cls-1" x="68.77" y="48.11" width="1.33" height="1.33"/></clipPath><clipPath id="clip-path-18"><rect class="cls-1" x="4.77" y="6.78" width="222.67" height="82.67"/></clipPath><clipPath id="clip-path-22"><rect class="cls-1" x="72.77" y="25.44" width="1.33" height="1.33"/></clipPath><clipPath id="clip-path-26"><rect class="cls-1" x="-49.9" y="-76.03" width="1.33" height="1.33"/></clipPath><clipPath id="clip-path-27"><rect class="cls-1" x="-88.83" y="-368.14" width="133" height="580" transform="translate(58.22 -88.92) rotate(-81.68)"/></clipPath><clipPath id="clip-path-28"><rect class="cls-1" x="-88.83" y="-362.14" width="133" height="568" transform="matrix(0.14, -0.99, 0.99, 0.14, 58.23, -88.92)"/></clipPath><clipPath id="clip-path-29"><rect class="cls-1" x="-272.57" y="-106.7" width="224" height="53.33"/></clipPath><clipPath id="clip-path-32"><rect class="cls-1" x="-55.23" y="-78.7" width="1.33" height="1.33"/></clipPath><clipPath id="clip-path-35"><rect class="cls-1" x="6.1" y="-77.36" width="1.33" height="1.33"/></clipPath><clipPath id="clip-path-38"><rect class="cls-1" x="68.77" y="-72.03" width="1.33" height="1.33"/></clipPath><clipPath id="clip-path-41"><rect class="cls-1" x="4.77" y="-113.36" width="222.67" height="82.67"/></clipPath><clipPath id="clip-path-44"><rect class="cls-1" x="72.77" y="-94.7" width="1.33" height="1.33"/></clipPath></defs><g class="cls-7"><g class="cls-3"><g class="cls-4"><g class="cls-8"><path class="cls-9" d="M7.14,44.06s0,0,0,0a0,0,0,0,1,0,0h0Z"/></g></g></g></g><g class="cls-10"><g class="cls-3"><g class="cls-4"><g class="cls-8"><path class="cls-9" d="M69.75,48.66h0Z"/></g></g></g></g><g class="cls-11"><g class="cls-3"><g class="cls-4"><g class="cls-8"><path class="cls-9" d="M264.07,75.78c-1.88-.58-3.8-1-5.7-1.44-.88-.22-2.64-.8-4.14-1.23s-2.73-.72-4.1-1.07c-5.08-1.32-8.86-2.35-13.9-4.08-3.39-1.17-6.73-2.47-10.15-3.57-3.94-1.27-7.94-2.34-11.9-3.57-7-2.21-13.83-4.73-20.73-7.15-5.17-1.82-10.33-3.66-15.56-5.31-4.33-1.39-8.62-2.87-12.95-4.23-3.11-1-6.29-1.73-9.45-2.51-2.86-.72-5.7-1.53-8.58-2.11a47.72,47.72,0,0,0-4.78-.64l.81-.4a8.85,8.85,0,0,0,3.51-2.37c1-1.19.83-2.72-.79-3.23a6.26,6.26,0,0,0-3.5.56,10.57,10.57,0,0,0-4.61,4c-.3.47-.59.93-.86,1.42a3,3,0,0,0-.36,1c-.25.19-.51.38-.75.59a17,17,0,0,0-1.83,1.67,31,31,0,0,1-2.28,2.41c-2.41,2.23-4.93,4.32-7.33,6.56-2.07,1.76-4.26,3.37-6.43,5s-3.52,1.84-6.53,2.22a16.31,16.31,0,0,0-3.88,1.07,37.49,37.49,0,0,0-3.41,1.79c-1.28.71-2.61,1.36-3.88,2.1a28.8,28.8,0,0,0-4.2,3c-1.8,1.47-3.55,3-5.22,4.62s-2.57,2.85-3.91,4l-.32-.37a11.3,11.3,0,0,0-3.8-2.89,2.73,2.73,0,0,0-1.8-.16,1.11,1.11,0,0,0-.65,1.43,3.38,3.38,0,0,0,.78,1c.36.38.71.76,1,1.17.57.59,1.1,1.64,1.76,2.34a8.45,8.45,0,0,1-.65.54,32,32,0,0,1-2.94,1.83c-.58.35-1.16.7-1.74,1l-.08,0-.14.08a19.44,19.44,0,0,0-3,1.81c-.66.53-1.28,1.12-2,1.64a7,7,0,0,1-1.6.94,11.2,11.2,0,0,1-4.32,1,6.18,6.18,0,0,1-1.9,0h0l-.1-.08a.44.44,0,0,0-.08-.11c0-.12-.1-.23-.14-.35s0-.21,0-.31a7.32,7.32,0,0,1,.53-2.83,33.95,33.95,0,0,1,6.2-9.9c1.38-1.48,5-3.83,7.58-5.27a26.18,26.18,0,0,0,8.3-7.86c1.5-2.09,2.75-4.33,4.08-6.51.68-1.11.67-1.19,1.49-2.35a21.12,21.12,0,0,1,3.24-3.39c1.79-1.53,3.63-3,5.37-4.6a14.16,14.16,0,0,0,2.34-2.49,2.85,2.85,0,0,0,.49-3.12c-.38-1.19-1.84-1.43-2.9-1.07a13,13,0,0,0-4.3,2.37A44,44,0,0,0,93,42.22a16.88,16.88,0,0,0-2.36,2.64,14.44,14.44,0,0,0-1.83,3.42c0,.1-.07.2-.1.3-1.16-.64-2.36-1.2-3.55-1.78s-2.26-1.09-3.36-1.68a5.53,5.53,0,0,1-2-1.59l-.06-.15a4.23,4.23,0,0,1-.1-.94v-.13c0-.9.1-1.8.19-2.7,0-.53.11-1.06.16-1.59a1.48,1.48,0,0,0-.16-1.15,1.06,1.06,0,0,0-1.46-.21,1.47,1.47,0,0,0-.49.88c-.14.48-.27,1-.4,1.43-.3,1.11-.42,1.67-.6,2.2a3.19,3.19,0,0,1-.28.66,2.48,2.48,0,0,1-.25.3l-.23.18a3.38,3.38,0,0,1-.63.23l-.11,0a16.59,16.59,0,0,1-2.9.3,32.88,32.88,0,0,1-3.51-.09,25.37,25.37,0,0,1-3.14-.37s0-.06,0-.1a3.21,3.21,0,0,1,0-1.11A12.14,12.14,0,0,0,66.06,40a2.63,2.63,0,0,0,.09-1.36,1,1,0,0,0-1.77-.26c-.22.23-.2.52-.3.79a13.66,13.66,0,0,0-.34,1.54l-.13.29-.09.11c-.14.11-.28.22-.43.32a6.1,6.1,0,0,1-1.06.4l-.24.07-.68.16c-1.89.32-3.8.49-5.71.68-2.29.21-4.6.27-6.9.42-1.5.08-3,.27-4.48.4a48.09,48.09,0,0,0-6.46.52c-2.43.44-4.82,1.15-7.3,1.35-1.61.11-1.84,0-3.66,0-1.6.05-3.19.27-4.79.29s-2.13,0-4.17-.07a46.94,46.94,0,0,1-6-.45,15.62,15.62,0,0,1-4.26-1l-.12-.1-.16-.21L7,43.78a1.79,1.79,0,0,1,0-.23l0-.21A2.73,2.73,0,0,1,7.14,43a1.78,1.78,0,0,1,.21-.27c.13-.19.61-.61.22-.24a4.49,4.49,0,0,1,.52-.37L8.42,42a34.27,34.27,0,0,1,5.35-1.69c3-.87,4.75-1.33,7.83-2,2.58-.6,5.14-1.32,7.7-2a68.25,68.25,0,0,0,8.16-2.55c1.12-.41,2.21-.92,3.35-1.29a12.48,12.48,0,0,1,2.58-.26c1.46,0,2.92,0,4.38-.1,1.29-.06,2.57-.17,3.85-.25s2.53-.17,3.78-.38a35.57,35.57,0,0,0,3.65-.82c2.83-.75,5.73-1.25,8.54-2.08A22,22,0,0,0,71.45,27c.57-.29,1.11-.6,1.67-.91a9.23,9.23,0,0,1,4.37-1.3c1.32-.15,2.65-.22,4-.36s2.44-.33,3.66-.49c3.26-.38,6.5-.85,9.75-1.3,1.63-.22,3.25-.41,4.86-.68s3.45-.65,5.17-1a64.52,64.52,0,0,0,8.78-2.12c3.48-1.15,7.06-2,10.47-3.39,2-.77,4-1.74,6-2.5,3-1.12,6-2.12,9.05-3.06a12.67,12.67,0,0,1,3.52-.63,33.78,33.78,0,0,1,5.35.49c2,.33,4,.77,6.08,1.12,5.53,1,11.15,1.4,16.74,1.95,9.57,1,19.15,1.68,28.75,2.27,5.07.34,10.15.51,15.22.8,8.54.54,17.07,1.27,25.62,1.67,5.49.27,11,.78,16.47,1,3.73.16,7.47.33,11.21.2l3.3-.11,1.77-.07H274c-.2-.06-.41-.1-.61-.15a72.67,72.67,0,0,0-10.27-1.62c-2.59-.2-5.2-.23-7.8-.38-5.22-.26-10.43-.74-15.65-1-8.12-.4-16.21-1.09-24.31-1.6-7.09-.37-14.19-.68-21.28-1.2-8.24-.52-16.46-1.25-24.67-2.06-5.45-.51-10.92-1-16.3-2-3.71-.69-7.45-1.56-11.25-1.33a23,23,0,0,0-4.6,1.1c-2.72.9-5.45,1.77-8.12,2.81-2.14.81-4.2,1.83-6.36,2.61-3.52,1.33-7.18,2.26-10.75,3.45a66.5,66.5,0,0,1-7.51,1.73c-1.81.36-3.6.73-5.42,1s-3.66.5-5.49.75c-3,.45-5.94.82-9,1.2-1.2.16-2.4.36-3.61.47s-2.48.2-3.71.34a14.94,14.94,0,0,0-3.51.75,15,15,0,0,0-1.91,1l.23-.12-.39.21a23.16,23.16,0,0,1-5,2.14c-1.83.56-5.15,1.19-7.79,1.89-1.18.29-2.36.61-3.55.81a37.5,37.5,0,0,1-4,.41c-1.41.08-2.83.21-4.25.26-1.64.05-3.29,0-4.93.12a16,16,0,0,0-5.32,1.57,53.71,53.71,0,0,1-6.06,2c-2.54.68-6,1.64-7.7,2.06-2.73.66-5.48,1.27-8.18,2-1.3.36-2.59.73-3.9,1.07a17.38,17.38,0,0,0-4.14,1.56,4,4,0,0,0-2,2.73,2.91,2.91,0,0,0,1.48,2.91,16.93,16.93,0,0,0,4.26,1.11,48.37,48.37,0,0,0,5.1.5,73.66,73.66,0,0,0,9.16-.06c1-.08,1.92-.13,2.87-.12a21.64,21.64,0,0,0,4.1-.2c1.95-.28,3.85-.8,5.79-1.16a30.26,30.26,0,0,1,4.14-.43c-.18.63-.31,1-.7,2.06-.69,1.53-1.3,3.09-1.85,4.67-.72,2-1.27,4-1.8,6.09s-1.14,4.31-1.5,6.5a17.21,17.21,0,0,0-.23,3.44,26.64,26.64,0,0,0,1.1,4.19c.72,1.95,2,5,2.24,6.11a29.31,29.31,0,0,1,.76,3.68,5.67,5.67,0,0,0,1.22,3.35,6.28,6.28,0,0,0,3.33,2.11,3.7,3.7,0,0,0,3.65-1.31,6,6,0,0,0,.84-1.8,12.85,12.85,0,0,0,.56-2.53,3.29,3.29,0,0,0,1.16-.52,8.65,8.65,0,0,0,2-2.6c.15-.26.3-.51.44-.77a2.83,2.83,0,0,0,2.84,1.92,8.12,8.12,0,0,0,5-1.77,6.51,6.51,0,0,0,1.75-2.28,27.7,27.7,0,0,0,1.7-3.77c.6-1.68,1-3.41,1.72-5,.6-1.43.9-1.46,2.14-2.74,2-2.27,2.66-5.65,4.25-7.29a25.31,25.31,0,0,1,4.7-3.71,8.73,8.73,0,0,1,2.33-1.08c.77-.16,1.56-.21,2.34-.33s1.78-.34,2.68-.45a25.5,25.5,0,0,1,3.27-.18q.38,0,.75,0l.25.07a1.61,1.61,0,0,0,.94.67,54.28,54.28,0,0,1-6,8.75,20.75,20.75,0,0,1-6.14,5A35.18,35.18,0,0,0,70,71.59a31.13,31.13,0,0,0-3.52,4.72c-1.65,2.68-4.84,8-3.07,11a3,3,0,0,0,3,1.23,15.65,15.65,0,0,0,4.47-.66A12.5,12.5,0,0,0,74,86.4a27.66,27.66,0,0,0,2.16-1.76,16.65,16.65,0,0,1,3.13-1.94c1.45-.86,2.91-1.67,4.32-2.58a15,15,0,0,0,2.6-2.23l.07-.08a17.24,17.24,0,0,0,3.15-2.69c1.46-1.55,2.6-2.86,3.74-3.85,1.4-1.26,2.82-2.5,4.29-3.69a28,28,0,0,1,3.44-2.47c.75-.47,2.47-1.31,3.89-2.11,1.05-.55,1.55-.92,3-1.59a14.3,14.3,0,0,1,2.7-.89c1.53-.29,3.11-.37,4.61-.81a11.8,11.8,0,0,0,4.19-2.24c1.12-.84,2.24-1.7,3.35-2.55,1-.74,1.93-1.49,2.83-2.29s2-1.85,3-2.73c1.7-1.46,3.38-2.93,5-4.48.76-.74,1.4-1.58,2.15-2.33a20.12,20.12,0,0,1,2.89-2.24,35.91,35.91,0,0,1,8.42.78c3.33.7,6.59,1.66,9.9,2.45a164.47,164.47,0,0,1,15.86,4.75c3.16,1.06,6.34,2.06,9.51,3.11,3,1,5.92,2.06,8.88,3.1,7,2.45,14,5,21.08,7.3,3.12,1,6.29,1.88,9.43,2.83,4.58,1.29,9,3,13.49,4.59,6.69,2.32,13.57,4.09,20.47,5.75a29.81,29.81,0,0,0,6.33.62l1.37,0,1.23,0a8.66,8.66,0,0,1,.89.07l0,0s.06,0,.09,0h0A8.68,8.68,0,0,0,264.07,75.78ZM91.74,46.89a22.74,22.74,0,0,1,5.46-5.6,33.13,33.13,0,0,1,3.65-2.6c.11,0,.62-.3.78-.35s.61-.21.76-.26l.32,0h0c0,.08,0,.15.07.22a1.5,1.5,0,0,1,0,.2s0,.07,0,.1l-.12.23c-.19.28-.4.55-.61.83a15.14,15.14,0,0,1-2,2c-3,2.8-6.68,5.13-9,8.63a4.3,4.3,0,0,0-.54-.51A8.89,8.89,0,0,1,91.74,46.89Zm-19.89-2c1.74,0,4.43,0,5.79-1.25a4,4,0,0,0,.2.67c.89,1.86,3.82,3,5.6,3.93,1.5.71,4,1.93,5,2.53l0,.12-1-.22a16.12,16.12,0,0,0-5.67-.25l-1,0c-1.15,0-2.31,0-3.46.12s-2,.28-3,.3h-.13a7.49,7.49,0,0,1-4.43-2.24c.08.07.15.16,0,0a.12.12,0,0,1,0-.05l-.07-.06.06,0A6.27,6.27,0,0,1,69,47.7c-.31-.45-.59-.92-.86-1.4s-.53-1-.78-1.59A44.84,44.84,0,0,0,71.85,44.93ZM46.48,85.28l-.16.21h0a2.72,2.72,0,0,1-.32.25h0a.78.78,0,0,1-.21.09,2.25,2.25,0,0,1-.36.06l-.24,0-.29,0-.24,0-.33-.13c-.14-.06-.27-.13-.4-.2s-.27-.19-.4-.29a4,4,0,0,1-1.12-1.17l0,0a3.5,3.5,0,0,1-.2-.54h0c-.16-.75-.22-1.51-.36-2.26a33.3,33.3,0,0,0-1.28-4.95c-.54-1.47-1.16-2.89-1.69-4.35a25.06,25.06,0,0,1-.91-3.29,8,8,0,0,1,0-2.48,62.5,62.5,0,0,1,1.8-8,59.2,59.2,0,0,1,2.34-7.25c.39-1.07.93-2.08,1.29-3.16.25-.68.44-1.38.63-2.09l1.19.07a35.11,35.11,0,0,0,5.33-.23c1.06-.14,2.06-.34,3-.55.65,0,1.3-.08,1.94-.14,2-.2,4-.37,5.94-.71a10.88,10.88,0,0,0,2.47-.77,1.79,1.79,0,0,0,.61.78c-.27.33-.12.2-.62.54a20.88,20.88,0,0,0-3.29,1.61,39.81,39.81,0,0,1-4.61,3,9.5,9.5,0,0,1-1.17.53h0a3.92,3.92,0,0,1-1.41-.39c-1-.34-2.9-1.62-3.85-.9s-.37,1.64.28,2.22a11.29,11.29,0,0,0,1.59,1.15h0A3.47,3.47,0,0,1,51.16,53c-.39,1.24-.75,2.5-1,3.78s-.53,2.41-.72,3.63A19.56,19.56,0,0,1,49,63a8.85,8.85,0,0,1-.46,1.21,13.75,13.75,0,0,1-1.33,2.34c-.25.21-.61.32-1.82.41-.8,0-1.6,0-2.39.08a2.76,2.76,0,0,0-1.84.56,1.06,1.06,0,0,0,.18,1.48,3.89,3.89,0,0,0,2.59.23c.82-.08,1.65-.15,2.45-.28a6.24,6.24,0,0,0,.85-.22c0,.34,0,.67,0,1,0,.81.11,1.6.17,2.4,0,1.35.21,2.69.28,4a31.3,31.3,0,0,1-.07,3.83A13.08,13.08,0,0,1,46.48,85.28ZM50,81.14a3,3,0,0,1-.48.42L49.6,81a44.2,44.2,0,0,0,.14-4.46c0-1.43-.23-2.85-.29-4.28,0-.83-.17-1.66-.19-2.49a11.22,11.22,0,0,1,.08-1.52,3,3,0,0,0,0-.94.14.14,0,0,1,0-.07.37.37,0,0,1,.06-.1,18,18,0,0,0,1.53-3.19,17.79,17.79,0,0,0,.61-3.41c.23-1.49.56-3,.91-4.44.27-1.09.29-1.12.7-2.44a4.91,4.91,0,0,0,.37-2,4.8,4.8,0,0,0,1.46.24,7.11,7.11,0,0,0,2.37-1,51.13,51.13,0,0,0,4.82-3.15,13.5,13.5,0,0,1,1.93-.88,5.63,5.63,0,0,0,1.59-.93c.08.17.17.37.3.62a15.84,15.84,0,0,0,2.38,3.6l-.16.11a17.47,17.47,0,0,0-2.76,2.4c-.22.19-.44.41-.68.65l-1.6,1.33a14,14,0,0,0-1.87,1.82,4.61,4.61,0,0,1-.43.29c-.14-.34-.3-.68-.47-1s-.44-1-1-1.22a1.05,1.05,0,0,0-1.48.78A3.16,3.16,0,0,0,58.39,57a5.85,5.85,0,0,0,.84,1.33c0,.08,0,.15.07.41s0,.2,0,.28a21.38,21.38,0,0,0-1.24,2c-.47.89-.88,1.8-1.3,2.71a20.2,20.2,0,0,0-2.28,3.4,27,27,0,0,0-.76,3.07c-.09.36-.17.73-.24,1.1a57.38,57.38,0,0,1-1.95,6.52A12.38,12.38,0,0,1,50,81.14ZM70.94,56c-1.37,1.49-2,3.47-2.93,5.25a9,9,0,0,1-2.44,3.16,8.11,8.11,0,0,0-1.68,3c-.56,1.54-1,3.14-1.56,4.67a27.93,27.93,0,0,1-1.81,3.83,4.57,4.57,0,0,1-.6.79,6.2,6.2,0,0,1-.77.58,4.37,4.37,0,0,1-.84.46,5.88,5.88,0,0,1-1.86.5,2.06,2.06,0,0,1-1,0l-.16-.07L55.15,78l0-.08a3.52,3.52,0,0,1-.2-1.62,41,41,0,0,1,.84-5.5c0-.11.06-.24.11-.41s.1-.32.14-.47.08-.27.13-.4a26,26,0,0,1,1.07-2.84c.64-.9,1.6-2.15,2.22-3a7.69,7.69,0,0,0,2-4.69l.26-.34a15.53,15.53,0,0,0,3-2.42c1.59-1.45,2.74-2.71,3.93-3.72a16,16,0,0,1,1.45-1c.28.17.58.35.88.5a7.52,7.52,0,0,0,3.76,1l-.36.26A17,17,0,0,0,70.94,56Zm68.92-18.27a7.63,7.63,0,0,1,1.32-1.34A7.45,7.45,0,0,1,144,35l.79-.13c-.43.59-1.27,1.1-3,1.88C141.15,37.05,140.5,37.4,139.86,37.76Z"/></g></g></g></g><g class="cls-12"><g class="cls-3"><g class="cls-4"><g class="cls-8"><path class="cls-9" d="M73.31,25.93l-.19.11,0,0Z"/></g></g></g></g></svg>